<?xml version="1.0" encoding="UTF-8"?>
<svg id="Capa_1" data-name="Capa 1" xmlns="http://www.w3.org/2000/svg" viewBox="0 0 541.87 560.88">
  <defs>
    <style>
      .cls-1 {
        fill: #1674a1;
      }

      .cls-2 {
        fill: #87aab8;
      }

      .cls-3 {
        fill: #094868;
      }

      .cls-4 {
        fill: #f2f8f8;
      }

      .cls-5 {
        fill: #fefefe;
      }

      .cls-6 {
        fill: #4f575e;
      }
    </style>
  </defs>
  <rect class="cls-5" x="207.73" y="520.22" width="1.4" height="1.4" transform="translate(-307.23 299.79) rotate(-44.98)"/>
  <path class="cls-6" d="M92.48,519.72c-1.55,8.27-9.97,12.76-17.27,12.78l-55.4.14c-6.23.02-11.61-2.41-14.8-5.98-4.3-4.81-5.51-10.62-4.84-18.7l17.18-.07c-.32,1.5.94,7.47,2.58,7.48l55.5.24c.97-7.69.87-13.42.03-20.87l-55.65.02c-9.24,0-19.18-6.02-19.32-15.4l-.3-21.74c-.13-9.65,7.93-17.36,17.73-17.41l55.29-.27c7.04-.03,12.94,2.8,16.72,7.84,3.37,4.5,4.57,11.51,3.28,17.37l-17.22-.08c.87-2.11-.6-8.16-2.5-8.17l-54.68-.29c-1.75,6.93-1.1,13.23-.48,21.16l56.87.24c8.73.04,17,6.01,17.79,15.14.73,8.53,1.26,17.17-.51,26.58Z"/>
  <path class="cls-6" d="M211.26,458.69l18.91.36-28.78,73.14c-5.52.86-10.02.97-15.14-.15l-21.03-49.42-21.03,49.57c-5.55.82-10.01,1-14.87-.39l-28.45-72.89,18.76-.19,17.39,43.54,18.8-43.29h18.5s19.23,44.08,19.23,44.08l17.7-44.37Z"/>
  <path class="cls-6" d="M311.56,469.81c1.04,2.75.99,6.54,1,9.49l.11,25.71-.69,28.22-61.02-1.41c-6.4-.15-10.37-6.42-13.88-11.29l.87-34.01,56.37-.38c2.46-.63,2.21-10.22-.27-10.25l-56.28-.66v-16.64s56.35-.01,56.35-.01c7.96,0,14.87,4.41,17.45,11.23ZM295.62,502.13l-40.49.06.02,13.55,40.49-.06-.02-13.55Z"/>
  <path class="cls-6" d="M331.75,459.09l53.3.25c8.9.05,15.8,7.25,15.84,16.12l.18,37.54c.04,7.82-3.95,14.38-10.04,17.38-4.41,2.17-9.31,2.04-14.04,2.06l-33.33.14-.14,15.92-.26,11.85c-5.94.69-11.17.78-17.36-.05l-.06-21.72.07-31.46-.04-25.72.15-12.03c.03-2.5-.85-5.47.25-8.4.61-1.62,3.54-2.38,5.49-1.87ZM384.32,515.65v-40.2h-41.16v40.2h41.16Z"/>
  <polygon class="cls-6" points="504.98 499.93 504.97 507.81 504.81 532.33 487.25 532.31 486.93 456.7 451.19 456.81 450.97 439.92 541.83 439.98 541.87 456.71 504.84 456.93 504.98 499.93"/>
  <path class="cls-6" d="M443.93,445.1c-1.75.05-5.84.03-5.84.03l-.15,31.01c-.02,4.03,2.4,6.64,5.99,7.93l-4.93-.09c-.68-.01-.5,3.76,0,4h4.93v44.34c-8.57,0-15.8.07-17.23.07.02-1.11.13-1.75.09-2.77-1.49-.07-2.57.32-3.5.32,0,0,.05,2.36.05,2.36l-13.39.02s.19-61.1.19-91.81c.72-.42,12.68,0,12.68,0,0,0,.1,2.59.25,4.35.7-.15,2.02.15,3.29.05-.01-1.32-.13-4.4-.13-4.4,0,0,11.57.15,17.71.05v4.53ZM417.54,458.78c-1.1-1.02-.78-6.41.98-6.56l13.89-1.15-.07-2.74-15.36.89c-2.72.69-3.67,9.38-1.26,11.25,4.09,3.18,12.69,3.96,17.03,1.72,2.91-1.91,2.47-8.7.29-10.42-.47,2.93-.4,6.47-1.9,7.76-1.41,1.2-10.99,1.66-13.59-.75ZM431.98,470.87l1.16,6.8c2.05-2.65,1.98-7.35.29-10.16-1.84-3.06-17.13-3.58-18.55,1.39-.86,3-.96,7.12.27,9.13,3.33,5.45,19.19.98,14.2-.57-3.89-1.21-9.69.9-11.11-1.18-.88-1.29-1.28-4.67-.47-5.85,1.62-2.37,13.75-2.31,14.22.44ZM442.62,489.26h-4.29v39.45h4.29v-39.45ZM432.31,494.13c-4.38-1.22-11.56-2.53-16.11.59-2.96,2.03-1.99,8.12-.54,10.26l.99-.93c-.19-2.59-.39-5.11.34-8.8l14.43-.04.89-1.07ZM433.41,495.19l-.95.99c-.08,2.58-.78,5.28.82,9.08,2.01-3.14,1.49-7.01.12-10.07ZM417.63,505.11l-.98.96c4.37,1.39,9.48,1.89,14.02-.1-5.13-1.78-9.13-.82-13.03-.85ZM432.4,520.79c1.22-1.49,4.13-5.44-.09-7.56-3.84-3.41-13.39-3.41-17.33-1.07-1.34,3.27-.56,8.77.56,10.63,1.51,2.53,14.92,4.67,16.86-2Z"/>
  <path class="cls-6" d="M432.31,513.23l.09,7.56c-5.26-.09-10.78.77-16.5-.77,2.59-8.88,9.15-8.06,16.41-6.79Z"/>
  <path class="cls-2" d="M443.93,445.1l-.58,38.45c-3.6-1.29-5.35-3.89-5.33-7.92l.15-31.44c2.6-.65,4.09-.13,5.76.91Z"/>
  <path class="cls-2" d="M417.54,458.78c2.6,2.41,12.18,1.95,13.59.75,1.5-1.28,1.43-4.82,1.9-7.76,2.19,1.71,2.62,8.51-.29,10.42-4.34,2.24-12.93,1.46-17.03-1.72-2.41-1.87-1.46-10.56,1.26-11.25l15.36-.89.07,2.74-13.89,1.15c-1.76.15-2.08,5.53-.98,6.56Z"/>
  <rect class="cls-2" x="438.33" y="489.26" width="4.29" height="39.45"/>
  <path class="cls-2" d="M431.98,470.87c-.47-2.75-12.6-2.8-14.22-.44-.81,1.18-.41,4.56.47,5.85,1.42,2.08,7.22-.03,11.11,1.18,4.99,1.55-10.87,6.02-14.2.57-1.23-2.01-1.13-6.13-.27-9.13,1.42-4.97,16.72-4.44,18.55-1.39,1.69,2.8,1.76,7.5-.29,10.16l-1.16-6.8Z"/>
  <path class="cls-2" d="M432.4,520.79l-.09-7.56c4.22,2.11,1.31,6.07.09,7.56Z"/>
  <path class="cls-2" d="M432.31,513.23c-7.26-1.27-13.83-2.09-16.41,6.79,5.72,1.53,11.24.68,16.5.77-1.95,6.67-15.35,4.53-16.86,2-1.11-1.87-1.89-7.37-.56-10.63,3.94-2.33,13.49-2.34,17.33,1.07Z"/>
  <path class="cls-2" d="M415.66,504.98c-1.45-2.14-2.42-8.23.54-10.26,4.55-3.12,11.73-1.81,16.11-.59.51.14.88.56,1.1,1.06,1.37,3.06,1.89,6.93-.12,10.07-1.6-3.8-.9-6.5-.82-9.08l-1.05-.98-14.43.04c-.73,3.69-.54,6.22-.34,8.8l.99,1.06c3.9.03,7.91-.93,13.03.85-4.54,1.99-9.64,1.49-14.02.1-.48-.15-.79-.79-.99-1.09Z"/>
  <g>
    <path class="cls-4" d="M180.7,236.86c2.62-2.44,10.77.57,12.35-1.67.8-1.13.69-3.26.05-4.42-.19-.35-4.18-1.66-8.96-1.33l-8.77,18.27,4.53-4.75c.99-1.04-.21-5.16.8-6.1Z"/>
    <path class="cls-4" d="M222.51,149.5c1.44,1.25,4.42,1.1,4.81-.52"/>
    <path class="cls-4" d="M193.05,224.53c1.86-1.93-.52-3.41-4.51-4.26l-2.72,5.67c3.01.15,5.74.13,7.23-1.41Z"/>
    <path class="cls-4" d="M200.49,222.16l1.02-28.89-2.78,5.8c-.02,7.58.36,15.23,1.77,23.09Z"/>
    <path class="cls-4" d="M277.53,27.6c-1.25-.2-2.39-.63-3.42-1.22-1.04,2.53-2.56,4.81-2.15,7.6l-29.92-23.3-.62,24.31c-81.89,13.58-145.78,81.51-152.46,165.07l25.82-37.11c7.97,11.18,14.27,22.37,23.21,32.79,9.45-56.23,46.77-99.99,102.85-112.74l.97,24.18,1.71-1.44,36.52-76.09c-.89-.62-1.75-1.32-2.52-2.04Z"/>
    <path class="cls-4" d="M202.4,167.81l-.89,25.46,10.9-22.71.02-2.32,1.09.03,4.66-9.71-8.38.04c-4.45.02-7.25,5.31-7.39,9.21Z"/>
    <path class="cls-4" d="M199.39,167.63c-.07-6.48,5.53-11.78,11.82-11.84l8.32-.08,2.98-6.21c-.47-.41-.78-.96-.78-1.67.02-4.21,1.94-10.03-.77-13.08l-11.88-13.37-1.48-14.51-2.36.06c-1.09,4.61-3.41,12.61-.03,16.4l11.58,12.97c2.62,2.93,2,9.25.21,12.66-1.14,2.16-4.33.81-4.63-.38-1.55-6.34,2.44-11.12-6.85-17.92-6.33-4.64-8.21-10.08-7.3-18.74-7.78,6.04-3.37,14.62,1.94,19.52,7.05,4.8,9.54,11.48,6.54,19.25-9.12.08-10.31,6.94-13.64,13.08-3.22,5.94-15.67,2.29-18.61-3.13-3.78-6.97-16.19-7.52-15.79-1.3,4.96-.85,10,.02,12.7,3.86,8.38,11.91,19.03,4.77,21.68,8.23.93,1.22.18,3.32-.94,4-4.1,2.49-15.44,1.82-21.88-6.65-10.89-3.81-19.33-.53-16.18,2.16,2.01,1.71,11.94-1.71,15.81,2.75,9.68,11.16,20.64,4.4,23.16,7.06.77.82.58,3.39.02,4.31-.64,1.05-14.98,3.58-23.65-4.07-5.66-1.89-13.9.02-19.44-.49-.6,1-.68,2.25-.46,3.75l18.7.19c10.08,12.48,27.09-.55,25.12,11.44-8.62.18-19.07,2.3-27.5-1.18-3.57-1.47-6.95-4.13-9.96-.8-2.26,2.5-1.85,6.63.78,8.81,3.22,2.66,5.58-.55,8.69-1.56,8.61-2.79,18.09-1.55,27.28-.87,1.57.12,1.29,5.16-.54,5.37-9.01,1-15.27-1.97-15.27,3.82l15.8,1.09c.19.01.35.15.49.33l5.66-11.8c.02-10.46.79-20.81.67-31.44Z"/>
    <path class="cls-4" d="M229.62,117.29l-1.52-20.95-2.4.39c-1.45,7.34-.87,15.13-.42,23.09l7.62,8.02,2.1-4.38-5.39-6.18Z"/>
    <path class="cls-4" d="M155.22,289.7c-7.71-13.41-13.33-28.35-16.38-44.44l24.02-.39-47.86-69.25-47,69.24,21.71.42"/>
    <path class="cls-4" d="M156.15,269.64c-1.12.11-.85,3.69.27,3.8l5.06.47c.46.04.86.03,1.29.04l1.91-3.99c-2.67.23-5.91-.59-8.54-.32Z"/>
    <path class="cls-4" d="M165.05,258.55c-4.73.73-9.56-1.37-14.19,2.02,4.69,1.84,12.7,3.53,16.82.42.7-.53,1.41-1.08,2.11-1.64l5.58-11.63-10.32,10.83Z"/>
    <path class="cls-4" d="M169.17,214.28c-3.54-1.88-7.2-3.44-9.84-.35-2.46,2.88-1.55,7.2,1.55,9.01,3.26,1.9,5.83-1.16,8.85-2.18,4.86-1.64,13.35-1.65,18.81-.49l2.18-4.55c-5.13.56-17.41.76-21.56-1.44Z"/>
    <path class="cls-4" d="M219.57,119.76c-2.39-5.73-.26-12.85-.78-18.34-1.5-.32-2.83-.12-3.84.38.12,6.13-1.63,13.31.46,19.56l11.66,13.4c.62.71,1,1.63,1.24,2.64l2.39-4.98-11.13-12.67Z"/>
    <path class="cls-4" d="M176.76,226.43c-3.55,1.32-11.82,9.85-8.92,11.46,1.04.57,2.49.17,3.19-.95,3.41-5.43,8.61-7.2,13.12-7.5l1.68-3.5c-3.09-.15-6.46-.47-9.07.49Z"/>
    <path class="cls-4" d="M285.76,33.2c.1,1,.15,2.41.61,3.25-1.1.23-2.25-.4-2.9-.99-.59-.54-1.5-1.9-.15-3.12.57-.52,2.02-.28,2.44.86Z"/>
    <path class="cls-4" d="M446.37,273.76l1.56-3.41c.67,1.3.23,3.28-1.56,3.41Z"/>
    <g>
      <path class="cls-1" d="M271.96,23.3l12.05,9.79,16.61,14.02-58.8,49.38-.97-24.18c-56.08,12.75-93.4,56.51-102.85,112.74-8.94-10.42-15.24-21.6-23.21-32.79l-25.82,37.11c6.69-83.56,70.57-151.48,152.46-165.07l.62-24.31,29.92,23.3Z"/>
      <path class="cls-1" d="M448.16,257.23l-.22,2.44-1.56,3.41c-20.49,66.18-75.86,116.23-145.46,128.15l-.29,24.2-54.71-42.58c-1.4-1.09-3.22-2.03-4.52-4.68l57.99-48.17,1.05,23.37c54.54-12.71,94.09-55.95,104.34-111.2l22.76,31.79,25.38-36.4c-.2,11.32-3.91,20.14-4.77,29.67Z"/>
      <path class="cls-3" d="M446.48,223.3l-18.78,26.96-48.2-68.68,24.76-.3c-10.76-58.19-57.22-105.24-117.23-111.97l25.23-22.28-23.52-19.49c-.64-.53-1.98-1.04-2.38-1.78-.46-.84-.51-2.25-.61-3.25,85.76,5.87,155.7,72.78,166.85,158.82l22.4.23-28.52,41.73ZM388.82,101.54l19.98,26.56c3.44,4.58,13.8,3.46,17.37,8.56,7.03,17.93,11.87,37.04,13.3,56-2.72,2.25-5,5.17-4.19,7.33,1.33,3.59,4.23,4.45,6.49,4.42,4.16-.04,5.45-2.38,5.63-5.68.12-2.29-1.99-4.85-4.11-6.46-1.76-20.55-5.64-40.52-15.04-59.28l-17.64-8.02c-5.91-10.38-13.14-19.02-21.1-28.04l-.29-17.5c-13.87-14.03-28.2-24.6-47.81-32.15-3.49-1.13-3.44,4.72.32,2.83,15.9,9.23,31.31,18.45,44.16,30.79.34,5.75.26,10.58-.68,15.89-2.97.43-8.95,1.74-11.41-.61-4.84-4.63-11.2-7.93-15.5-13.25-1.56-1.93.24-8.46-5.04-8.21-3.01.14-6.39,1.74-6.96,5.52-.51,3.37,2.52,6.54,6.57,6.39,8.41-.31,16.82,12.84,20.32,13.23l15.64,1.71ZM369.5,81.59c2.46,1.84,3.68,5.82,8.01,3.26-10.75-10.04-21.93-19.27-35.71-25.03-4.16-1.74-8.93-2.94-11.07-7.16-1.46-2.88-3.62-4.12-6.21-4.05-2.96.08-4.85,1.52-5.3,4.27-.4,2.46-.28,6.78,3.22,6.69l10.54-.25c12.88,6.41,24.52,13.3,36.53,22.27ZM416.87,107.01c0-3.52-2.85-6.37-6.38-6.37s-6.38,2.85-6.38,6.37,2.85,6.37,6.38,6.37,6.38-2.85,6.38-6.37ZM383.06,107.41c.02.59-3.23.08-.88,2.65l.88-2.65ZM384.02,109.48l-1.22,1.41,16.03,22.68c3.61,5.1,11.45,5.62,16.95,9.12,10.35,26.19,13.8,53.53,10.49,81.97l-14.54-18.01-1.95,1.4,18.13,26.82c3.76-6.21,7.62-10.6,9.3-16.82-3.85-.09-4.32,2.84-7.02,4.34,4.14-22.48-1.35-68.77-12.6-81.9l-16.26-9.3c-6.13-7.38-9.09-17.26-17.3-21.71ZM419.99,200.62c-2.19-18.64-1.99-39.41-14.94-55.63,4.62,18.96,10.93,36.49,10.03,55.7,1.34.75,3.17.87,4.91-.07Z"/>
      <path class="cls-3" d="M145.75,343.6c-8.67-9.85-17.73-19.36-25.61-30.7-16.26-23.42-25.99-50.01-30.43-78.29l-21.71-.42,47-69.24,47.86,69.25-24.02.39c11.33,59.66,57.61,103.73,116.99,111.33l-25.6,22.12c3.02,4.82,7.67,6.73,11.25,9.79l17.63,15.11c-34.38-2.17-64.61-14.65-92.3-32.49M160.98,304.48l-17.26-22.44-17.53-9.8-8.08-26.85-3.9-32.16c-.67-5.51,1.22-11.61,2.8-17.62l17.04,16.56c-.05.05.51-.46,1.03-1.3l-19.62-28.95c-5.64,5.28-9.14,10.62-12.65,17.65,2.74-.17,6.88-.47,7.81,1.17l.75,30.29,3.25,16.53c1.94,9.86,4.31,20.63,10.97,28.16l15.69,8.69c6.15,7.37,9.53,16.51,16.73,23.28,1.37,1.29,4.24-1.58,2.98-3.21ZM200.41,363.93c-15.82-7.84-30.25-16.49-43.7-28-.64-5-.5-9.48.08-14.79,4.33.05,9.98-1.26,14.03.99,15.55,8.68,12.72,16.4,15.64,17.04,2.46.54,5.4,1.11,7.67-.77,1.6-1.32,2.14-4.72.86-6.94-2.7-4.66-8.24-3.03-11.86-4.92-4.72-2.47-7.16-7.94-13.24-8.47-4.08-.36-11.44,1.43-14.28-2.28l-20.95-27.39c-3.94-5.15-12.05-5.12-17.95-8.47-6.61-18.49-13.83-37-12.92-56.91.13-2.86,5.61-6.72.14-10.16-2.7-1.7-6.14-1.24-8.86,1.88-3.36,3.85,2.48,6.25,3.05,9.22,3.88,20.41,5.85,40.65,16.16,58.47l18.8,10.24,10.07,14.7c-.8,2.28-4,2.09-5.49,1.45-1.14-.48-2.87-1.66-3.25-3.69-.57-3.14-5.83-2.31-5.5-.84,1.92,4.36,3.68,8.47,4.14,13.16.37,3.71,5.62,4.29,8.53,3.5,2.27-.62,3.38-4.5,4.73-7.27,5.8.44,7.78,8.54,6.22,13.67-2.24,7.35.96,10.68,5.97,14.6,16.46,12.92,33.06,25.18,53.22,30.74-2.29-5.65-7.24-6.74-11.29-8.75ZM128.85,238.28c-2.37-9.29.27-17.82-4.59-26.64-3.24,9.31-.46,17.71,1.03,26.49,1.85,10.88,2.43,22.44,11.28,30.38l-7.73-30.23ZM180.75,339.83c-4.15-2.45-6.79-8.84-12.99-6.16,12.83,13.16,51.15,33.77,54.22,29.31.4-.58-.03-2.37-1.3-2.86-13.98-5.33-26.24-12.21-39.93-20.29Z"/>
      <path class="cls-2" d="M193.05,213.85c4.4-4.57-14.89-6.6-23.31-3.76-3.03,1.02-5.59,4.08-8.85,2.18s-4.01-6.14-1.55-9.01c2.64-3.08,6.29-1.53,9.84.35,5.1,2.7,22.49,1.78,23.77,1.03.97-.56.86-4.7-.37-4.78l-15.8-1.09c0-5.79,6.27-2.82,15.27-3.82,1.83-.2,2.11-5.25.54-5.37-9.19-.68-18.68-1.92-27.28.87-3.11,1.01-5.47,4.22-8.69,1.56-2.63-2.18-3.04-6.3-.78-8.81,3.01-3.33,6.39-.67,9.96.8,8.43,3.48,18.88,1.36,27.5,1.18,1.98-11.99-15.04,1.04-25.12-11.44l-18.7-.19c-.22-1.49-.14-2.75.46-3.75,5.55.5,13.79-1.4,19.44.49,8.67,7.66,23.01,5.13,23.65,4.07.56-.92.75-3.49-.02-4.31-2.53-2.67-13.48,4.09-23.16-7.06-3.86-4.45-13.8-1.03-15.81-2.75-3.15-2.69,5.29-5.97,16.18-2.16,6.45,8.47,17.79,9.14,21.88,6.65,1.11-.68,1.87-2.78.94-4-2.64-3.46-13.29,3.68-21.68-8.23-2.7-3.84-7.74-4.71-12.7-3.86-.4-6.22,12.01-5.67,15.79,1.3,2.94,5.42,15.39,9.07,18.61,3.13,3.33-6.14,4.52-13,13.64-13.08,3-7.77.51-14.45-6.54-19.25-5.31-4.9-9.71-13.47-1.94-19.52-.91,8.66.97,14.1,7.3,18.74,9.28,6.8,5.29,11.58,6.85,17.92.29,1.19,3.49,2.55,4.63.38,1.79-3.41,2.41-9.73-.21-12.66l-11.58-12.97c-3.38-3.79-1.06-11.79.03-16.4l2.36-.06,1.48,14.51,11.88,13.37c2.71,3.05.79,8.88.77,13.08-.01,2.86,5.07,3.3,5.59,1.15,1.01-4.13,2.51-11.03-.25-14.21l-11.66-13.4c-2.09-6.25-.34-13.44-.46-19.56,1.01-.5,2.34-.71,3.84-.38.53,5.49-1.61,12.6.78,18.34l11.76,13.38c2.26,2.57-2.1,16.64,3.43,16.98,4.65.28,3.91-16.21,1.85-18.38l-11.32-11.91c-.45-7.96-1.03-15.74.42-23.09l2.4-.39,1.52,20.95,11.31,12.97,1.38,18.78c.1,1.4,3.66,1.57,4.58.63,1.22-1.25,2.77-17.61-.43-22.15-1.82-2.59-6.58-4.52-3.06-9.18l8.56,8.69.53,22.06c.04,1.51,5.67,1.36,5.66.02-.13-10.48,1.53-20.7-.68-31.02-.59-2.74-4.29-5.56-1.41-8.52,2.3-2.38,5.71-2.71,8.3-.87,4.26,3.03.42,6.2-.52,9.49-2.72,9.54-.44,19.6-1.31,29.69-.22,2.5,5.97,3.18,6.02,1.17l.41-19.56c.08-3.82,1.11-7.19,4.37-9.45,11.42-7.92-3.08-17.67,2.32-22.86,2.69-2.59,7.11-1.94,8.95.71,2.1,3.01.29,5.72-2.02,8.99l-1.84,11.24-7.06,7.33-.28,26.72c-4.82-.07-9.11,3.09-13.53,3.13l-48.66.46c-6.29.06-11.89,5.36-11.82,11.84.2,18.34-2.25,35.82,1.09,54.53l1.91-54.35c.14-3.91,2.94-9.19,7.39-9.21l48.25-.25c-2.57,9.07-10.24,12.06-19.67,9.17l-1.01,18.82c-.13,2.42-7.53,13.19-10.97,10.79-1.03-.72-2.35-2.4-2.37-4.22l-.27-24.38-11.34-.27-.17,23.7c-.05,7.04,3.68,12.37,11.35,14.04-.95,6.09,3.08,12.39,3.73,17.53-2.93,6.01-9.18,10.67-10.9,17.79l-21.56,3.76c-.42-5.07-2.84-5.27-5.61-5.58-5.51-.61-4.5,2.48-6.69,6.11-3.55,5.88-9.33,11.19-14.9,15.39-4.12,3.11-12.13,1.42-16.82-.42,4.63-3.39,9.47-1.29,14.19-2.02l14.85-15.58c.99-1.04-.21-5.16.8-6.1,2.62-2.44,10.77.57,12.35-1.67.8-1.13.69-3.26.05-4.42-.37-.68-15.05-5.03-22.08,6.18-.7,1.11-2.16,1.52-3.19.95-2.89-1.6,5.37-10.14,8.92-11.46,5.14-1.91,13.29,1.22,16.29-1.91ZM281.32,90c0-.94-.76-1.69-1.69-1.69s-1.69.76-1.69,1.69.76,1.69,1.69,1.69,1.69-.76,1.69-1.69ZM258.6,101.05c-1.2,1.59.77,3.05,1.92,2.75.61-.16,1.61.42,2.35-.93.62-1.15-.23-2.07-.87-2.23-.79-.21-2.9-.23-3.39.42ZM158.26,186.09c-1.4,1.9.53,3.21,1.88,2.85.59-.16,1.57.43,2.3-.92.63-1.15-.25-2.07-.85-2.23-.79-.2-2.93-.24-3.32.29ZM161.31,205.87c-1.36,1.82.28,3.29,1.91,2.83.61-.17,1.51.45,2.26-.91.63-1.15-.25-2.07-.85-2.23-.82-.21-2.92-.22-3.32.3ZM210.31,214.38c3.24-.6,3.33-5.73.77-5.75-2.22-.02-2.1,5.4-.77,5.75ZM210.34,223.7c3.19.28,3.56-2.31,2.5-3.63-1.56-1.93-5.67.92-13.12,2.32,3.28,2.65,6.56.95,10.62,1.3Z"/>
      <path class="cls-2" d="M331.36,269.46c-.16-1.51-5.08-1.5-6.03-.42-3.35,19.37,8.04,19.95,7.93,24.76l-.63,28.87h-2.41s-1.16-28.1-1.16-28.1l-7.27-9.23-1.03-16.73c-2.18-.62-3.66-.03-4.05.79-.44.91-.53,3.12-.57,4.57l-.16,5.03c-.04,1.2-1.43,2.93-4.22,1.71.47-4.27,2.12-10.24-3.43-12.88-7.24,17.2,9.45,22.34,9.68,28.08l1.23,29.79c.04,1.05-.45,2.56-.78,3.07-.44.69-1.73,1.36-3.75.8l-.28-32.53-11.17-13.11-1.3-14.13c-.15-1.64-4.08-.88-4.34.45-1.81,9.33-1.12,17.61,6.03,22.32,6.46,4.26,8.86,13.23,4.2,19.45-4.19-3.73-.89-9.3-2.76-11.43l-10.8-12.28c-2.8-3.18.76-16.73-2.31-19.63-4.69-4.44-6.59,11.71-3.51,21.31l10.93,13.29c-.07.47-1,1.86-1.28,1.95-4.68-2.5-10.11-7.09-13.13-12.41-4.14-7.31,2.68-26.83-5.86-24.34-1.14.33-1.56,1.95-1.48,3.97l1.26,34.39c.11,2.93,4.49,6.43,1.2,9.75-2.23,2.25-6.86,1.92-8.82.09-3.93-3.65,1.5-7.21,1.56-9.82l.86-35.98c.05-2.17-.48-4.41.65-5.95.96-1.31,3.87-2.47,6.4-2.47l46.02-.13c7.51-.02,16.37-.29,16.5-9.85l.65-46.41c.1-7,7.43-9.52,13.13-8.36,12.08,2.45,14.49-12.63,20.09-6.89-3.15,3.2-5.98,7.2-9.99,9.65-5.87,3.59-21.68-2.99-17.36,5.89.77,1.58,18.27,2.72,22.94-.07,3.23-1.93,6.28-4.23,10.06-1.19,2.02,1.63,2.26,5.77-.26,8.1-3.13,2.88-5.86.56-9.34-.63-7.38-2.53-15.65-.6-23.18-.97-.68,2.49-.66,3.77-.01,6.11,5.6.52,11.69-1.28,17.38.81,3.7,1.35,7.46,4.98,11.54,1.07,1.89-1.81,4.65-2.71,7.15-1.11,1.6,1.02,2.66,3.35,2.44,5.87-.19,2.19-3.78,5.39-6.48,3.66-3.54-2.28-7.12-2.16-10.68-3.45-12.94-4.67-24.04-4.93-21.59,2.81,4.8,1.54,10.9.76,16.48.89,4.27.11,6.06,5.1,8.73,6.21,6.41,2.68,12.97.76,18.74,1.88l.04,2.29-20.87.24c-3.98-7.9-16.83-8.31-22.37-6.15-.98.38-1.79,4.3-.26,4.44l15.51,1.44,10.32,8.95,15.56,2.04c-4.3,4.74-15.55,4.75-19.27.47-5.27-6.08-9.89-9.75-18.39-7.89-.98.22-3.64-.92-4.18.85-3.2,10.51,11.87-1.12,20.71,11.63,6.04,8.72,19.73,2.16,15.58,7.95-.95,1.33-13.52,2.95-17.13-3.87-2.73-5.16-15.32-10.14-18.21-4.33-3.07,6.18-5.84,11.91-13.63,13.6-5.62,13.05,2.97,15.69,9.11,24.02.82,7.97,2.35,15.1-1.25,22.9-3.98-7.26-.6-14.08-3.01-21.07l-9.22-10.45c-2.8-3.18-1.15-7.92-1.41-13.95ZM380.31,208.81c-.3-2.4-3.26-2.4-3.56,0-.49,3.86,4.05,3.86,3.56,0ZM384.88,222.5c-.3-2.4-3.26-2.4-3.56,0-.49,3.86,4.05,3.86,3.56,0ZM276.76,312.02c0-.94-.76-1.69-1.69-1.69s-1.69.76-1.69,1.69.76,1.69,1.69,1.69,1.69-.76,1.69-1.69Z"/>
      <path class="cls-2" d="M329.05,260.18l-25.78-.48,36.87-49.69.6,38.2c.11,6.82-4.1,12.11-11.68,11.97Z"/>
      <path class="cls-2" d="M284.55,118.95c-1.67,2.88,1.7,10.39-4.58,11.85-3.6-18.24,7.75-21.07,16.99-32.79,3.94-5-.92-21.7,4.72-17.05.49.4.98,1.41.93,3.03l-.41,13.4c-4.03,8.46-12.44,12.57-17.65,21.55Z"/>
      <path class="cls-2" d="M161.49,263.23l-5.06-.47c-1.12-.1-1.39-3.68-.27-3.8,3.85-.39,9.09,1.62,11.8-.91l13.2-12.3,3.36-.71c1.14-.24,3.61,1.83,2.78,3.08-11.94,4.04-12.36,16.35-25.8,15.1Z"/>
      <path class="cls-2" d="M252.17,325.58c.32,3.47,3.97,6.39,1.95,9.06-2.15,2.86-6.53,3.02-9.14.78-3.2-2.75-.67-6.3,1.15-9.57l1.9-19.84c.78-.14,1.63-.14,2.34-.03l1.8,19.6ZM250.89,331.78c0-.94-.76-1.69-1.69-1.69s-1.69.76-1.69,1.69.76,1.69,1.69,1.69,1.69-.76,1.69-1.69Z"/>
      <path class="cls-2" d="M187.67,259.88c-9.54,3.47-12.23,13.15-18.66,13.94-3.91.48-8.62,1.62-8.31-3.8,3.86-.2,8.26.22,10.72-2.18l11.45-11.16c.94-.92,3.33-.44,4.34-.33.84.09,1.46,2.66.46,3.53Z"/>
      <path class="cls-2" d="M390.98,162.79c1.24,6.27-8.47,1.14-12.82,4.39-5.91,4.41-8.84,11.68-16.45,14.35,3.4-8.41,9.88-13.77,15.66-19.42,4.98.16,9.36-.65,13.62.67Z"/>
      <path class="cls-2" d="M352.53,137.06c-4.23-1.22-4.77-6.33-1.74-9.33,5.04-4.99,2.82-11.66,8.84-12.11,3.37-.25,5.21,1.83,5.73,4.11,2.25,9.76-13.21,3.26-12.83,17.33ZM361.87,120.4c-.75-2.55-3.49-1.79-3.37.55-.19,3.85,4.48,3.22,3.37-.55Z"/>
      <path class="cls-2" d="M349.76,103.99c1.41,9.09-13.13,10.09-9.2,22.97-4.87-.56-4.86-3.79-4.78-7.2.11-4.12,8.54-14.98,13.98-15.77Z"/>
      <path class="cls-2" d="M198.2,295.1c1.27,1.3-1.88,12.8-6.38,13.17-3.25.27-6.35-3.67-6.29-6.18.12-5.3,12.12-7.56,12.67-6.99ZM193.07,302.89c0-.94-.76-1.69-1.69-1.69s-1.69.76-1.69,1.69.76,1.69,1.69,1.69,1.69-.76,1.69-1.69Z"/>
      <path class="cls-2" d="M328.93,118.9c-3.44-.22-3.41-2.34-3.52-3.9-.51-6.87,10.58-7.51,9.83-20.09,10.9,10.1-5.75,13.45-6.31,23.99Z"/>
      <path class="cls-2" d="M207.06,318.47c3.72.73,4.06-3.68.52-3.13-.59,1.62-1.52,3.15-2.18,3.27-.73.13-1.82-.79-2.1-1.42-.31-.71-.43-2.12.63-3.14,3.91-3.81,2.03-14.12,6.32-9.74.5.51-.1,2.17.31,3.31l3.58,9.97c.9,2.51-1.64,4.9-3.66,4.81-1.85-.08-3.78-.9-3.41-3.92Z"/>
      <path class="cls-2" d="M377.34,154.57c-4.26,2.64-4.8,6.93-9.89,6.97-.29-4.42,3.56-7.49,5.88-9.3,3.85-3.01,9.63-2.74,13.21-.31-2.04,4.12-7.23,1.42-9.2,2.64Z"/>
      <path class="cls-2" d="M224.55,326.58c.08,1.97-1.21,1.61-1.71,1.58-1.15-.07-2.46-.9-2.46-2.61l-.02-11.48c1.38-.31,3.04-.04,3.69.43l.51,12.08Z"/>
      <path class="cls-2" d="M381.14,141.43c-5.49,2.07-9.42,4.07-14.11,8.78-2.16-6.83,6.56-13.45,14.11-8.78Z"/>
      <path class="cls-2" d="M287.09,259.95c-2.29.16-5.14.53-7.14-.57-1.19-.79,1.31-4.56,3.41-3.72,1.56.62,3.86,1.71,3.73,4.3Z"/>
      <path class="cls-1" d="M388.82,101.54l-15.64-1.71c-3.5-.38-11.91-13.54-20.32-13.23-4.06.15-7.08-3.02-6.57-6.39.57-3.78,3.95-5.37,6.96-5.52,5.28-.25,3.48,6.28,5.04,8.21,4.3,5.32,10.65,8.62,15.5,13.25,2.46,2.35,8.44,1.04,11.41.61.94-5.3,1.02-10.14.68-15.89-12.85-12.34-28.26-21.56-44.16-30.79-3.76,1.9-3.81-3.95-.32-2.83,19.61,7.55,33.95,18.12,47.81,32.15l.29,17.5c7.96,9.02,15.19,17.66,21.1,28.04l17.64,8.02c9.4,18.77,13.28,38.73,15.04,59.28,2.12,1.61,4.23,4.17,4.11,6.46-.17,3.3-1.47,5.64-5.63,5.68-2.26.02-5.16-.83-6.49-4.42-.8-2.17,1.48-5.09,4.19-7.33-1.43-18.96-6.27-38.06-13.3-56-3.58-5.11-13.93-3.99-17.37-8.56l-19.98-26.56Z"/>
      <path class="cls-1" d="M382.17,110.05c-2.35-2.57.9-2.06.88-2.65l.96,2.08c8.21,4.46,11.17,14.33,17.3,21.71l16.26,9.3c11.25,13.13,16.74,59.42,12.6,81.9,2.69-1.51,3.17-4.44,7.02-4.34-1.67,6.22-5.54,10.61-9.3,16.82l-18.13-26.82,1.95-1.4,14.54,18.01c3.31-28.45-.14-55.79-10.49-81.97-5.49-3.5-13.34-4.02-16.95-9.12l-16.03-22.68c-.06-.59-.54-.84-.63-.84Z"/>
      <path class="cls-1" d="M369.5,81.59c-12-8.97-23.65-15.86-36.53-22.27l-10.54.25c-3.5.08-3.61-4.23-3.22-6.69.44-2.76,2.34-4.2,5.3-4.27,2.6-.07,4.75,1.18,6.21,4.05,2.14,4.22,6.91,5.42,11.07,7.16,13.79,5.76,24.97,14.98,35.71,25.03-4.33,2.56-5.56-1.42-8.01-3.26ZM327.37,54.27c0-1.44-1.16-2.6-2.6-2.6s-2.6,1.16-2.6,2.6,1.16,2.6,2.6,2.6,2.6-1.16,2.6-2.6Z"/>
      <path class="cls-1" d="M419.99,200.62c-1.74.95-3.57.82-4.91.07.9-19.21-5.41-36.74-10.03-55.7,12.95,16.22,12.75,36.99,14.94,55.63Z"/>
      <ellipse class="cls-1" cx="410.49" cy="107.01" rx="6.38" ry="6.37"/>
      <path class="cls-1" d="M200.41,363.93c4.05,2.01,9.01,3.1,11.29,8.75-20.16-5.56-36.75-17.82-53.22-30.74-5.01-3.93-8.21-7.26-5.97-14.6,1.56-5.13-.42-13.23-6.22-13.67-1.35,2.77-2.46,6.65-4.73,7.27-2.9.79-8.16.21-8.53-3.5-.46-4.69-2.22-8.8-4.14-13.16-.33-1.48,4.93-2.3,5.5.84.37,2.04,2.11,3.21,3.25,3.69,1.49.63,4.69.83,5.49-1.45l-10.07-14.7-18.8-10.24c-10.31-17.82-12.28-38.06-16.16-58.47-.56-2.96-6.41-5.37-3.05-9.22,2.73-3.12,6.16-3.58,8.86-1.88,5.47,3.45,0,7.3-.14,10.16-.91,19.91,6.3,38.41,12.92,56.91,5.9,3.36,14.01,3.33,17.95,8.47l20.95,27.39c2.84,3.71,10.19,1.92,14.28,2.28,6.08.54,8.53,6,13.24,8.47,3.62,1.9,9.16.27,11.86,4.92,1.29,2.22.74,5.62-.86,6.94-2.27,1.87-5.21,1.31-7.67.77-2.92-.64-.08-8.36-15.64-17.04-4.04-2.26-9.7-.94-14.03-.99-.58,5.3-.72,9.78-.08,14.79,13.45,11.52,27.88,20.16,43.7,28ZM103.17,217.74c0-1.46-1.18-2.64-2.64-2.64s-2.64,1.18-2.64,2.64,1.18,2.64,2.64,2.64,2.64-1.18,2.64-2.64ZM187.48,331.55l-.58,4.75,5.39.66.58-4.75-5.39-.66Z"/>
      <path class="cls-1" d="M160.98,304.48c1.26,1.63-1.61,4.5-2.98,3.21-7.2-6.78-10.57-15.91-16.73-23.28l-15.69-8.69c-6.67-7.53-9.04-18.3-10.97-28.16l-3.25-16.53-.75-30.29c-.93-1.64-5.07-1.34-7.81-1.17,3.51-7.04,7.01-12.37,12.65-17.65l19.62,28.95c-.52.84-1.08,1.35-1.03,1.3l-17.04-16.56c-1.58,6.01-3.47,12.11-2.8,17.62l3.9,32.16,8.08,26.85,17.53,9.8,17.26,22.44Z"/>
      <path class="cls-1" d="M180.75,339.83c13.69,8.08,25.95,14.96,39.93,20.29,1.27.49,1.7,2.28,1.3,2.86-3.07,4.46-41.39-16.15-54.22-29.31,6.2-2.68,8.84,3.71,12.99,6.16Z"/>
      <path class="cls-1" d="M128.85,238.28l7.73,30.23c-8.85-7.93-9.43-19.5-11.28-30.38-1.5-8.78-4.27-17.18-1.03-26.49,4.86,8.82,2.21,17.35,4.59,26.64Z"/>
      <path class="cls-4" d="M210.34,223.7c-4.06-.36-7.34,1.34-10.62-1.3,7.45-1.4,11.56-4.25,13.12-2.32,1.06,1.32.69,3.9-2.5,3.63Z"/>
      <path class="cls-4" d="M210.31,214.38c-1.33-.35-1.45-5.76.77-5.75,2.56.02,2.47,5.14-.77,5.75Z"/>
      <path class="cls-4" d="M158.26,186.09c.39-.53,2.54-.5,3.32-.29.61.16,1.48,1.08.85,2.23-.73,1.35-1.71.76-2.3.92-1.35.36-3.28-.95-1.88-2.85Z"/>
      <path class="cls-4" d="M258.6,101.05c.49-.65,2.6-.62,3.39-.42.63.17,1.49,1.08.87,2.23-.73,1.35-1.73.77-2.35.93-1.14.3-3.12-1.16-1.92-2.75Z"/>
      <path class="cls-4" d="M161.31,205.87c.39-.53,2.5-.51,3.32-.3.6.16,1.48,1.08.85,2.23-.74,1.36-1.65.74-2.26.91-1.63.46-3.26-1.01-1.91-2.83Z"/>
      <circle class="cls-4" cx="279.63" cy="90" r="1.69"/>
      <g>
        <path class="cls-6" d="M227.25,303.71c1.68-4.33,4.77-10.97,8.89-12.13l15.05-4.22-8.14-6.57c3.06-1.84,6.5-1.45,10.47-2.57-3.18-14.94,3.13-16.6,6.83-26.9l8.53-11.65c4.07,1.94,6.58,3.92,9.72,7-3.62,4.35-6.03,9.69-10.45,12.8-3.58,2.52-7.8,4.61-7.34,10l2.05,23.82-21.25,4.99c-4.61,1.08-6.14,9.54-11.33,9.71-1.23.04-4.07-1.55-3.02-4.26Z"/>
        <path class="cls-6" d="M204.05,251.77c6.2,16.25-6.22,28.86-10.24,27.7-2.83-.82-3.49-3.73-1.79-6.6,1.47-2.48,4.82-5.05,5.3-8.18,1.14-7.47-.92-14.68-1.11-22.27l24.45-4.42c5.21-.94,4.9-12.28,15.11-22.11,4.05.49,7.1,3.28,9.43,6.39-2.58,7.73-9.39,11.52-14.01,16.74-4.35,4.91-8.19,7.95-15.94,7.69-2.17.36-2.12,6.53-.85,10.09l-10.35-5.04Z"/>
        <path class="cls-6" d="M215.13,293.06c-1.04,1.35-3.52.85-4.46.18-1.15-.82-2.42-3.38-.96-5.35l31.13-42.15c4.37-5.91,5.84-14.11,12.71-18.62,3.04,1.8,6.37,4.53,8.27,7.17-2.69,7.85-9.83,11.2-14.14,16.76l-32.56,42.02Z"/>
        <g>
          <path class="cls-6" d="M287.88,234.52l.75,14.64-52.5-39.6c-5.13-3.87-6.57-9.78-2.55-15.16l30.51-40.8c1.65-2.21,3.52-3.59,5.83-3.77s4.06,1.38,6.2,3.04l49.34,38.31c-1.92,1.15-5.63.76-6.66,1.85l-30.92,41.49ZM285.4,200.25c2.92-3.41,2.56-9.9-.14-12.44-3.43-3.22-10.94-3.3-14.27-.04-3.27,3.2-2.58,10.46,1.03,13.12,3.25,2.39,10.49,2.73,13.38-.64Z"/>
          <path class="cls-6" d="M294.12,253.57l-2.33-17.57,29.08-39.41,14.18-2.33-57.67-45.17,20.85-28.22c6.18-.91,11.59-1.64,17.92-1.94l42.26,32.07c.67,6.86,1.14,12.74.76,19.75l-59.87,81.66c-1.16,1.58-4.99,2.57-5.18,1.16ZM334.14,153.3c0-6.71-5.44-12.15-12.16-12.15s-12.16,5.44-12.16,12.15,5.44,12.15,12.16,12.15,12.16-5.44,12.16-12.15Z"/>
          <path class="cls-1" d="M285.4,200.25c-2.89,3.37-10.13,3.04-13.38.64-3.62-2.66-4.3-9.92-1.03-13.12,3.33-3.27,10.84-3.19,14.27.04,2.7,2.54,3.07,9.03.14,12.44Z"/>
          <ellipse class="cls-4" cx="321.98" cy="153.3" rx="12.16" ry="12.15"/>
        </g>
      </g>
      <path class="cls-4" d="M384.88,222.5c.49,3.86-4.05,3.86-3.56,0,.3-2.4,3.26-2.4,3.56,0Z"/>
      <path class="cls-4" d="M380.31,208.81c.49,3.86-4.05,3.86-3.56,0,.3-2.4,3.26-2.4,3.56,0Z"/>
      <circle class="cls-4" cx="275.06" cy="312.02" r="1.69"/>
      <circle class="cls-4" cx="249.19" cy="331.78" r="1.69"/>
      <path class="cls-4" d="M361.87,120.4c1.11,3.77-3.56,4.4-3.37.55-.11-2.34,2.62-3.1,3.37-.55Z"/>
      <circle class="cls-4" cx="191.37" cy="302.89" r="1.69"/>
      <circle class="cls-3" cx="324.76" cy="54.27" r="2.6"/>
      <rect class="cls-3" x="187.49" y="331.54" width="4.79" height="5.43" transform="translate(-164.92 482.23) rotate(-83.04)"/>
      <circle class="cls-3" cx="100.53" cy="217.74" r="2.64"/>
    </g>
  </g>
</svg>